<svg xmlns="http://www.w3.org/2000/svg" xmlns:xlink="http://www.w3.org/1999/xlink" width="500" zoomAndPan="magnify" viewBox="0 0 375 374.999991" height="500" preserveAspectRatio="xMidYMid meet" version="1.0"><defs><g/><clipPath id="a221908b48"><path d="M 86.910156 303 L 287.910156 303 L 287.910156 307.160156 L 86.910156 307.160156 Z M 86.910156 303 " clip-rule="nonzero"/></clipPath><clipPath id="aa8a57a877"><path d="M 164 226.160156 L 196 226.160156 L 196 241 L 164 241 Z M 164 226.160156 " clip-rule="nonzero"/></clipPath><clipPath id="25b32623ec"><path d="M 87.875 238.578125 L 287.878906 238.578125 L 287.878906 297.917969 L 87.875 297.917969 Z M 87.875 238.578125 " clip-rule="nonzero"/></clipPath><clipPath id="8dd4565018"><path d="M 240.855469 278.222656 L 269.734375 278.222656 L 269.734375 307.160156 L 240.855469 307.160156 Z M 240.855469 278.222656 " clip-rule="nonzero"/></clipPath><clipPath id="2f432dacf2"><path d="M 123.394531 278.222656 L 152.335938 278.222656 L 152.335938 307.160156 L 123.394531 307.160156 Z M 123.394531 278.222656 " clip-rule="nonzero"/></clipPath></defs><rect x="-37.5" width="450" fill="#ffffff" y="-37.499999" height="449.999989" fill-opacity="1"/><rect x="-37.5" width="450" fill="#ffffff" y="-37.499999" height="449.999989" fill-opacity="1"/><g clip-path="url(#a221908b48)"><path fill="#8db6c5" d="M 285.644531 307.046875 L 88.464844 307.046875 C 87.617188 307.046875 86.933594 306.363281 86.933594 305.515625 C 86.933594 304.671875 87.617188 303.988281 88.464844 303.988281 L 285.644531 303.988281 C 286.488281 303.988281 287.175781 304.671875 287.175781 305.515625 C 287.175781 306.363281 286.488281 307.046875 285.644531 307.046875 " fill-opacity="1" fill-rule="nonzero"/></g><g clip-path="url(#aa8a57a877)"><path fill="#c8e3f7" d="M 164.011719 240.671875 L 195.398438 240.671875 L 193.867188 226.160156 L 165.539062 226.160156 L 164.011719 240.671875 " fill-opacity="1" fill-rule="nonzero"/></g><path fill="#2c3549" d="M 169.9375 230.574219 L 167.699219 230.574219 L 167.699219 229.023438 L 174.023438 229.023438 L 174.023438 230.574219 L 171.785156 230.574219 L 171.785156 237.183594 L 169.9375 237.183594 L 169.9375 230.574219 " fill-opacity="1" fill-rule="nonzero"/><path fill="#2c3549" d="M 176.515625 233.804688 L 178.253906 233.804688 L 178.066406 233.050781 C 177.839844 232.238281 177.613281 231.273438 177.402344 230.425781 L 177.351562 230.425781 C 177.152344 231.285156 176.941406 232.238281 176.714844 233.050781 Z M 176.316406 229.023438 L 178.527344 229.023438 L 181.078125 237.183594 L 179.128906 237.183594 L 178.628906 235.242188 L 176.140625 235.242188 L 175.640625 237.183594 L 173.765625 237.183594 L 176.316406 229.023438 " fill-opacity="1" fill-rule="nonzero"/><path fill="#2c3549" d="M 183.332031 232.988281 L 181.207031 229.023438 L 183.257812 229.023438 L 183.96875 230.5625 C 184.15625 230.9375 184.332031 231.363281 184.558594 231.875 L 184.605469 231.875 C 184.796875 231.363281 184.96875 230.9375 185.132812 230.5625 L 185.785156 229.023438 L 187.746094 229.023438 L 185.632812 233.078125 L 187.882812 237.183594 L 185.832031 237.183594 L 185.019531 235.519531 C 184.820312 235.09375 184.632812 234.679688 184.40625 234.179688 L 184.359375 234.179688 C 184.167969 234.679688 183.984375 235.09375 183.808594 235.519531 L 183.042969 237.183594 L 181.070312 237.183594 L 183.332031 232.988281 " fill-opacity="1" fill-rule="nonzero"/><path fill="#2c3549" d="M 188.988281 229.023438 L 190.824219 229.023438 L 190.824219 237.183594 L 188.988281 237.183594 L 188.988281 229.023438 " fill-opacity="1" fill-rule="nonzero"/><g clip-path="url(#25b32623ec)"><path fill="#ffbc2e" d="M 279.328125 297.90625 L 116.53125 297.90625 L 99.273438 293.917969 C 93.625 292.613281 89.230469 288.164062 87.996094 282.492188 C 87.460938 280.039062 89.292969 277.703125 91.800781 277.648438 L 92.445312 277.632812 L 92.335938 269.3125 C 92.28125 264.984375 95.613281 261.363281 99.925781 261.070312 L 117.214844 259.882812 C 122.832031 255.484375 128.847656 251.539062 135.199219 247.972656 C 144.429688 242.789062 154.691406 239.757812 165.246094 239.042969 C 176.605469 238.273438 186.773438 238.480469 200.738281 239.640625 C 206.363281 240.105469 211.734375 242.226562 216.160156 245.734375 L 236.929688 262.195312 C 252.460938 263.386719 267.367188 265.761719 278.71875 269.503906 C 282.742188 270.828125 285.328125 274.734375 284.917969 278.953125 L 284.269531 285.652344 C 286.261719 285.652344 287.878906 287.269531 287.878906 289.269531 L 287.878906 289.339844 C 287.878906 294.070312 284.050781 297.90625 279.328125 297.90625 " fill-opacity="1" fill-rule="nonzero"/></g><path fill="#2c3549" d="M 186.9375 279.828125 L 192.929688 279.828125 L 192.929688 273.832031 L 186.9375 273.832031 L 186.9375 279.828125 " fill-opacity="1" fill-rule="nonzero"/><path fill="#2c3549" d="M 192.925781 273.832031 L 198.917969 273.832031 L 198.917969 267.832031 L 192.925781 267.832031 L 192.925781 273.832031 " fill-opacity="1" fill-rule="nonzero"/><path fill="#2c3549" d="M 198.917969 279.832031 L 204.910156 279.832031 L 204.910156 273.832031 L 198.917969 273.832031 L 198.917969 279.832031 " fill-opacity="1" fill-rule="nonzero"/><path fill="#2c3549" d="M 204.910156 273.832031 L 210.902344 273.832031 L 210.902344 267.832031 L 204.910156 267.832031 L 204.910156 273.832031 " fill-opacity="1" fill-rule="nonzero"/><path fill="#2c3549" d="M 210.902344 279.832031 L 216.894531 279.832031 L 216.894531 273.832031 L 210.902344 273.832031 L 210.902344 279.832031 " fill-opacity="1" fill-rule="nonzero"/><path fill="#2c3549" d="M 216.894531 273.832031 L 222.886719 273.832031 L 222.886719 267.832031 L 216.894531 267.832031 L 216.894531 273.832031 " fill-opacity="1" fill-rule="nonzero"/><path fill="#2c3549" d="M 222.886719 279.828125 L 228.878906 279.828125 L 228.878906 273.832031 L 222.886719 273.832031 L 222.886719 279.828125 " fill-opacity="1" fill-rule="nonzero"/><path fill="#2c3549" d="M 228.878906 273.832031 L 234.871094 273.832031 L 233.34375 267.832031 L 228.878906 267.832031 L 228.878906 273.832031 " fill-opacity="1" fill-rule="nonzero"/><path fill="#e17b29" d="M 284.761719 276.328125 L 282.539062 276.328125 C 279.65625 276.328125 277.054688 278.054688 275.929688 280.707031 L 275.914062 280.742188 C 275.351562 282.066406 276.320312 283.53125 277.753906 283.53125 L 284.472656 283.53125 L 284.917969 278.953125 C 285.003906 278.054688 284.933594 277.175781 284.761719 276.328125 " fill-opacity="1" fill-rule="nonzero"/><path fill="#d85f60" d="M 95.5 269.59375 L 92.339844 269.59375 L 92.429688 276.5625 L 98.914062 276.5625 C 100.261719 276.5625 101.261719 275.316406 100.972656 274 C 100.410156 271.425781 98.132812 269.59375 95.5 269.59375 " fill-opacity="1" fill-rule="nonzero"/><path fill="#000000" d="M 232.730469 262.644531 L 212.917969 247.074219 C 209.800781 244.625 206.011719 243.1875 202.054688 242.988281 C 191.789062 242.476562 177.75 242.40625 167.464844 242.785156 C 160.960938 243.023438 154.734375 245.421875 149.710938 249.570312 C 146.058594 252.585938 142.371094 255.902344 138.640625 259.582031 L 232.730469 262.644531 " fill-opacity="1" fill-rule="nonzero"/><path fill="#2c3549" d="M 220.734375 253.21875 L 212.921875 247.074219 C 209.804688 244.625 206.011719 243.1875 202.054688 242.988281 C 191.789062 242.476562 177.75 242.40625 167.464844 242.785156 C 160.960938 243.023438 154.734375 245.421875 149.710938 249.570312 C 148.300781 250.734375 146.882812 251.960938 145.464844 253.21875 L 220.734375 253.21875 " fill-opacity="1" fill-rule="nonzero"/><path fill="#000000" d="M 255.285156 275.722656 C 264.53125 275.722656 272.03125 283.226562 272.03125 292.488281 L 272.03125 297.90625 L 238.542969 297.90625 L 238.542969 292.488281 C 238.542969 283.226562 246.039062 275.722656 255.285156 275.722656 " fill-opacity="1" fill-rule="nonzero"/><g clip-path="url(#8dd4565018)"><path fill="#656872" d="M 240.867188 292.71875 C 240.867188 284.746094 247.320312 278.277344 255.285156 278.277344 C 263.25 278.277344 269.707031 284.746094 269.707031 292.71875 C 269.707031 300.695312 263.25 307.160156 255.285156 307.160156 C 247.320312 307.160156 240.867188 300.695312 240.867188 292.71875 " fill-opacity="1" fill-rule="nonzero"/></g><path fill="#c8e3f7" d="M 245.132812 292.71875 C 245.132812 287.105469 249.679688 282.554688 255.285156 282.554688 C 260.894531 282.554688 265.4375 287.105469 265.4375 292.71875 C 265.4375 298.332031 260.894531 302.886719 255.285156 302.886719 C 249.679688 302.886719 245.132812 298.332031 245.132812 292.71875 " fill-opacity="1" fill-rule="nonzero"/><path fill="#2c3549" d="M 248.230469 292.71875 C 248.230469 288.816406 251.386719 285.652344 255.285156 285.652344 C 259.183594 285.652344 262.34375 288.816406 262.34375 292.71875 C 262.34375 296.621094 259.183594 299.785156 255.285156 299.785156 C 251.386719 299.785156 248.230469 296.621094 248.230469 292.71875 " fill-opacity="1" fill-rule="nonzero"/><path fill="#445e79" d="M 251.109375 292.71875 C 251.109375 290.410156 252.980469 288.535156 255.285156 288.535156 C 257.59375 288.535156 259.464844 290.410156 259.464844 292.71875 C 259.464844 295.03125 257.59375 296.902344 255.285156 296.902344 C 252.980469 296.902344 251.109375 295.03125 251.109375 292.71875 " fill-opacity="1" fill-rule="nonzero"/><path fill="#000000" d="M 137.863281 275.722656 C 147.109375 275.722656 154.605469 283.226562 154.605469 292.488281 L 154.605469 297.90625 L 121.117188 297.90625 L 121.117188 292.488281 C 121.117188 283.226562 128.613281 275.722656 137.863281 275.722656 " fill-opacity="1" fill-rule="nonzero"/><g clip-path="url(#2f432dacf2)"><path fill="#656872" d="M 123.441406 292.71875 C 123.441406 284.746094 129.898438 278.277344 137.863281 278.277344 C 145.824219 278.277344 152.28125 284.746094 152.28125 292.71875 C 152.28125 300.695312 145.824219 307.160156 137.863281 307.160156 C 129.898438 307.160156 123.441406 300.695312 123.441406 292.71875 " fill-opacity="1" fill-rule="nonzero"/></g><path fill="#c8e3f7" d="M 127.707031 292.71875 C 127.707031 287.105469 132.253906 282.554688 137.863281 282.554688 C 143.46875 282.554688 148.015625 287.105469 148.015625 292.71875 C 148.015625 298.332031 143.46875 302.886719 137.863281 302.886719 C 132.253906 302.886719 127.707031 298.332031 127.707031 292.71875 " fill-opacity="1" fill-rule="nonzero"/><path fill="#2c3549" d="M 130.804688 292.71875 C 130.804688 288.816406 133.964844 285.652344 137.863281 285.652344 C 141.757812 285.652344 144.917969 288.816406 144.917969 292.71875 C 144.917969 296.621094 141.757812 299.785156 137.863281 299.785156 C 133.964844 299.785156 130.804688 296.621094 130.804688 292.71875 " fill-opacity="1" fill-rule="nonzero"/><path fill="#445e79" d="M 133.683594 292.71875 C 133.683594 290.410156 135.554688 288.535156 137.863281 288.535156 C 140.167969 288.535156 142.039062 290.410156 142.039062 292.71875 C 142.039062 295.03125 140.167969 296.902344 137.863281 296.902344 C 135.554688 296.902344 133.683594 295.03125 133.683594 292.71875 " fill-opacity="1" fill-rule="nonzero"/><path fill="#e28b2e" d="M 158.660156 294.289062 L 158.652344 293.53125 C 158.492188 281.992188 152.1875 274.160156 140.894531 271.472656 L 140.523438 271.382812 L 140.371094 271.03125 C 138.777344 267.351562 138.582031 263.910156 138.78125 259.550781 L 140.308594 259.621094 C 140.125 263.621094 140.285156 266.789062 141.628906 270.074219 C 153.183594 272.964844 159.734375 280.988281 160.160156 292.753906 L 231.347656 292.601562 C 234.964844 282.984375 234.902344 272.988281 231.160156 262.882812 L 232.59375 262.351562 C 236.53125 272.988281 236.53125 283.515625 232.585938 293.644531 L 232.398438 294.128906 L 158.660156 294.289062 " fill-opacity="1" fill-rule="nonzero"/><path fill="#e28b2e" d="M 187.9375 292.71875 L 186.40625 292.71875 L 186.40625 242.546875 L 187.9375 242.546875 L 187.9375 292.71875 " fill-opacity="1" fill-rule="nonzero"/><path fill="#2c3549" d="M 156.832031 270.625 L 154.042969 270.625 L 154.042969 268.691406 L 161.925781 268.691406 L 161.925781 270.625 L 159.136719 270.625 L 159.136719 278.863281 L 156.832031 278.863281 L 156.832031 270.625 " fill-opacity="1" fill-rule="nonzero"/><path fill="#2c3549" d="M 165.027344 274.648438 L 167.191406 274.648438 L 166.960938 273.714844 C 166.679688 272.699219 166.398438 271.496094 166.132812 270.4375 L 166.070312 270.4375 C 165.824219 271.515625 165.558594 272.699219 165.277344 273.714844 Z M 164.78125 268.691406 L 167.535156 268.691406 L 170.714844 278.863281 L 168.285156 278.863281 L 167.660156 276.445312 L 164.558594 276.445312 L 163.9375 278.863281 L 161.601562 278.863281 L 164.78125 268.691406 " fill-opacity="1" fill-rule="nonzero"/><path fill="#2c3549" d="M 173.519531 273.632812 L 170.871094 268.691406 L 173.425781 268.691406 L 174.3125 270.609375 C 174.546875 271.078125 174.765625 271.609375 175.046875 272.246094 L 175.109375 272.246094 C 175.339844 271.609375 175.558594 271.078125 175.761719 270.609375 L 176.574219 268.691406 L 179.019531 268.691406 L 176.386719 273.746094 L 179.191406 278.863281 L 176.636719 278.863281 L 175.621094 276.785156 C 175.371094 276.257812 175.140625 275.742188 174.859375 275.117188 L 174.796875 275.117188 C 174.5625 275.742188 174.328125 276.257812 174.113281 276.785156 L 173.160156 278.863281 L 170.699219 278.863281 L 173.519531 273.632812 " fill-opacity="1" fill-rule="nonzero"/><path fill="#2c3549" d="M 180.5625 268.691406 L 182.851562 268.691406 L 182.851562 278.863281 L 180.5625 278.863281 L 180.5625 268.691406 " fill-opacity="1" fill-rule="nonzero"/><g fill="#ffd700" fill-opacity="1"><g transform="translate(88.217965, 110.049791)"><g><path d="M 0.546875 -44.5625 L 0.546875 -55.703125 L 39.703125 -55.703125 L 39.703125 -44.5625 L 26.46875 -44.5625 L 26.46875 0 L 13.765625 0 L 13.765625 -44.5625 Z M 0.546875 -44.5625 "/></g></g></g><g fill="#ffd700" fill-opacity="1"><g transform="translate(128.457855, 110.049791)"><g><path d="M 6.40625 -4.28125 C 3.164062 -7.820312 1.546875 -12.15625 1.546875 -17.28125 C 1.546875 -22.414062 3.164062 -26.757812 6.40625 -30.3125 C 9.65625 -33.863281 13.773438 -35.640625 18.765625 -35.640625 C 23.359375 -35.640625 27.140625 -34.203125 30.109375 -31.328125 L 30.109375 -34.640625 L 42.0625 -34.640625 L 42.0625 0 L 30.25 0 L 30.25 -3.921875 L 30.109375 -3.921875 C 27.140625 -0.628906 23.359375 1.015625 18.765625 1.015625 C 13.773438 1.015625 9.65625 -0.75 6.40625 -4.28125 Z M 16.578125 -23.15625 C 15.023438 -21.625 14.25 -19.664062 14.25 -17.28125 C 14.25 -14.894531 14.988281 -12.945312 16.46875 -11.4375 C 17.957031 -9.9375 19.914062 -9.1875 22.34375 -9.1875 C 24.6875 -9.1875 26.609375 -9.945312 28.109375 -11.46875 C 29.617188 -13 30.375 -14.9375 30.375 -17.28125 C 30.375 -19.664062 29.597656 -21.625 28.046875 -23.15625 C 26.492188 -24.6875 24.59375 -25.453125 22.34375 -25.453125 C 20.050781 -25.453125 18.128906 -24.6875 16.578125 -23.15625 Z M 16.578125 -23.15625 "/></g></g></g><g fill="#ffd700" fill-opacity="1"><g transform="translate(174.571693, 110.049791)"><g><path d="M 44.15625 0 L 29.703125 0 L 22.078125 -9.796875 L 14.453125 0 L 0 0 L 14.78125 -18.09375 L 2.09375 -34.640625 L 16.0625 -34.640625 L 22.078125 -26.59375 L 28.09375 -34.640625 L 42.0625 -34.640625 L 29.375 -18.09375 Z M 44.15625 0 "/></g></g></g><g fill="#ffd700" fill-opacity="1"><g transform="translate(218.727549, 110.049791)"><g><path d="M 5.203125 -53.9375 C 6.597656 -55.332031 8.257812 -56.03125 10.1875 -56.03125 C 12.125 -56.03125 13.789062 -55.332031 15.1875 -53.9375 C 16.582031 -52.550781 17.28125 -50.890625 17.28125 -48.953125 C 17.28125 -47.015625 16.582031 -45.347656 15.1875 -43.953125 C 13.789062 -42.554688 12.125 -41.859375 10.1875 -41.859375 C 8.257812 -41.859375 6.597656 -42.554688 5.203125 -43.953125 C 3.804688 -45.347656 3.109375 -47.015625 3.109375 -48.953125 C 3.109375 -50.890625 3.804688 -52.550781 5.203125 -53.9375 Z M 4.046875 -34.640625 L 4.046875 0 L 16 0 L 16 -34.640625 Z M 4.046875 -34.640625 "/></g></g></g><g fill="#0077be" fill-opacity="1"><g transform="translate(104.602601, 179.504397)"><g><path d="M 4.046875 -55.703125 L 23.96875 -55.703125 C 29.320312 -55.703125 33.6875 -54.269531 37.0625 -51.40625 C 40.4375 -48.550781 42.125 -44.46875 42.125 -39.15625 C 42.125 -35.0625 41.097656 -31.628906 39.046875 -28.859375 C 37.003906 -26.085938 34.226562 -24.140625 30.71875 -23.015625 L 49.890625 0 L 33.75 0 L 16.75 -22.015625 L 16.75 0 L 4.046875 0 Z M 16.75 -30.984375 L 18.234375 -30.984375 C 19.398438 -30.984375 20.390625 -31.003906 21.203125 -31.046875 C 22.015625 -31.097656 22.9375 -31.257812 23.96875 -31.53125 C 25 -31.800781 25.828125 -32.179688 26.453125 -32.671875 C 27.085938 -33.171875 27.628906 -33.890625 28.078125 -34.828125 C 28.535156 -35.773438 28.765625 -36.925781 28.765625 -38.28125 C 28.765625 -39.632812 28.535156 -40.78125 28.078125 -41.71875 C 27.628906 -42.664062 27.085938 -43.382812 26.453125 -43.875 C 25.828125 -44.375 25 -44.757812 23.96875 -45.03125 C 22.9375 -45.300781 22.015625 -45.457031 21.203125 -45.5 C 20.390625 -45.550781 19.398438 -45.578125 18.234375 -45.578125 L 16.75 -45.578125 Z M 16.75 -30.984375 "/></g></g></g><g fill="#0077be" fill-opacity="1"><g transform="translate(152.944487, 179.504397)"><g><path d="M 5.203125 -53.9375 C 6.597656 -55.332031 8.257812 -56.03125 10.1875 -56.03125 C 12.125 -56.03125 13.789062 -55.332031 15.1875 -53.9375 C 16.582031 -52.550781 17.28125 -50.890625 17.28125 -48.953125 C 17.28125 -47.015625 16.582031 -45.347656 15.1875 -43.953125 C 13.789062 -42.554688 12.125 -41.859375 10.1875 -41.859375 C 8.257812 -41.859375 6.597656 -42.554688 5.203125 -43.953125 C 3.804688 -45.347656 3.109375 -47.015625 3.109375 -48.953125 C 3.109375 -50.890625 3.804688 -52.550781 5.203125 -53.9375 Z M 4.046875 -34.640625 L 4.046875 0 L 16 0 L 16 -34.640625 Z M 4.046875 -34.640625 "/></g></g></g><g fill="#0077be" fill-opacity="1"><g transform="translate(173.334509, 179.504397)"><g><path d="M 6.078125 -34.640625 L 6.078125 -47.53125 L 18.03125 -47.53125 L 18.03125 -34.640625 L 25.3125 -34.640625 L 25.3125 -25.515625 L 18.03125 -25.515625 L 18.03125 -14.515625 C 18.03125 -11.316406 18.929688 -9.71875 20.734375 -9.71875 C 21.179688 -9.71875 21.648438 -9.804688 22.140625 -9.984375 C 22.640625 -10.171875 23.023438 -10.351562 23.296875 -10.53125 L 23.703125 -10.796875 L 26.671875 -1.140625 C 24.097656 0.296875 21.171875 1.015625 17.890625 1.015625 C 15.640625 1.015625 13.703125 0.625 12.078125 -0.15625 C 10.460938 -0.945312 9.238281 -2.003906 8.40625 -3.328125 C 7.570312 -4.660156 6.972656 -6.054688 6.609375 -7.515625 C 6.253906 -8.984375 6.078125 -10.550781 6.078125 -12.21875 L 6.078125 -25.515625 L 1.078125 -25.515625 L 1.078125 -34.640625 Z M 6.078125 -34.640625 "/></g></g></g><g fill="#0077be" fill-opacity="1"><g transform="translate(200.003577, 179.504397)"><g><path d="M 5.203125 -53.9375 C 6.597656 -55.332031 8.257812 -56.03125 10.1875 -56.03125 C 12.125 -56.03125 13.789062 -55.332031 15.1875 -53.9375 C 16.582031 -52.550781 17.28125 -50.890625 17.28125 -48.953125 C 17.28125 -47.015625 16.582031 -45.347656 15.1875 -43.953125 C 13.789062 -42.554688 12.125 -41.859375 10.1875 -41.859375 C 8.257812 -41.859375 6.597656 -42.554688 5.203125 -43.953125 C 3.804688 -45.347656 3.109375 -47.015625 3.109375 -48.953125 C 3.109375 -50.890625 3.804688 -52.550781 5.203125 -53.9375 Z M 4.046875 -34.640625 L 4.046875 3.03125 C 4.046875 6.1875 2.945312 7.765625 0.75 7.765625 C 0.289062 7.765625 -0.179688 7.6875 -0.671875 7.53125 C -1.171875 7.375 -1.578125 7.203125 -1.890625 7.015625 L -2.296875 6.75 L -6.015625 16.40625 C -5.921875 16.445312 -5.625 16.582031 -5.125 16.8125 C -4.632812 17.039062 -4.265625 17.207031 -4.015625 17.3125 C -3.765625 17.425781 -3.347656 17.570312 -2.765625 17.75 C -2.179688 17.9375 -1.617188 18.070312 -1.078125 18.15625 C -0.535156 18.25 0.132812 18.335938 0.9375 18.421875 C 1.75 18.515625 2.609375 18.5625 3.515625 18.5625 C 5.765625 18.5625 7.742188 18.164062 9.453125 17.375 C 11.160156 16.59375 12.460938 15.535156 13.359375 14.203125 C 14.265625 12.878906 14.929688 11.484375 15.359375 10.015625 C 15.785156 8.554688 16 6.992188 16 5.328125 L 16 -34.640625 Z M 4.046875 -34.640625 "/></g></g></g><g fill="#0077be" fill-opacity="1"><g transform="translate(220.056006, 179.504397)"><g><path d="M 39.09375 -15.65625 L 13.96875 -15.65625 C 13.96875 -13.226562 14.753906 -11.425781 16.328125 -10.25 C 17.910156 -9.082031 19.625 -8.5 21.46875 -8.5 C 23.40625 -8.5 24.9375 -8.757812 26.0625 -9.28125 C 27.1875 -9.800781 28.46875 -10.828125 29.90625 -12.359375 L 38.546875 -8.03125 C 34.953125 -2 28.96875 1.015625 20.59375 1.015625 C 15.375 1.015625 10.894531 -0.769531 7.15625 -4.34375 C 3.414062 -7.925781 1.546875 -12.238281 1.546875 -17.28125 C 1.546875 -22.320312 3.414062 -26.640625 7.15625 -30.234375 C 10.894531 -33.835938 15.375 -35.640625 20.59375 -35.640625 C 26.082031 -35.640625 30.546875 -34.050781 33.984375 -30.875 C 37.429688 -27.707031 39.15625 -23.175781 39.15625 -17.28125 C 39.15625 -16.46875 39.132812 -15.925781 39.09375 -15.65625 Z M 14.3125 -22.28125 L 27.484375 -22.28125 C 27.210938 -24.082031 26.5 -25.46875 25.34375 -26.4375 C 24.195312 -27.40625 22.726562 -27.890625 20.9375 -27.890625 C 18.945312 -27.890625 17.367188 -27.367188 16.203125 -26.328125 C 15.035156 -25.296875 14.40625 -23.945312 14.3125 -22.28125 Z M 14.3125 -22.28125 "/></g></g></g><g fill="#000000" fill-opacity="1"><g transform="translate(233.456665, 131.596769)"><g><path d="M 7.265625 -8.9375 C 8.609375 -8.9375 9.742188 -8.46875 10.671875 -7.53125 C 11.609375 -6.601562 12.078125 -5.472656 12.078125 -4.140625 C 12.078125 -2.828125 11.609375 -1.703125 10.671875 -0.765625 C 9.742188 0.160156 8.609375 0.625 7.265625 0.625 C 5.960938 0.625 4.84375 0.160156 3.90625 -0.765625 C 2.976562 -1.703125 2.515625 -2.828125 2.515625 -4.140625 C 2.515625 -5.472656 2.976562 -6.601562 3.90625 -7.53125 C 4.84375 -8.46875 5.960938 -8.9375 7.265625 -8.9375 Z M 7.265625 -8.9375 "/></g></g></g><g fill="#000000" fill-opacity="1"><g transform="translate(248.043456, 131.596769)"><g><path d="M 2.515625 0 L 2.515625 -21.4375 L 9.90625 -21.4375 L 9.90625 -19.1875 L 9.984375 -19.1875 C 11.910156 -21.101562 13.960938 -22.0625 16.140625 -22.0625 C 17.191406 -22.0625 18.238281 -21.921875 19.28125 -21.640625 C 20.332031 -21.367188 21.335938 -20.941406 22.296875 -20.359375 C 23.253906 -19.773438 24.03125 -18.945312 24.625 -17.875 C 25.226562 -16.800781 25.53125 -15.550781 25.53125 -14.125 L 25.53125 0 L 18.140625 0 L 18.140625 -12.125 C 18.140625 -13.238281 17.785156 -14.210938 17.078125 -15.046875 C 16.367188 -15.878906 15.441406 -16.296875 14.296875 -16.296875 C 13.179688 -16.296875 12.171875 -15.863281 11.265625 -15 C 10.359375 -14.132812 9.90625 -13.175781 9.90625 -12.125 L 9.90625 0 Z M 2.515625 0 "/></g></g></g><g fill="#000000" fill-opacity="1"><g transform="translate(275.670605, 131.596769)"><g><path d="M 2.515625 0 L 2.515625 -35.953125 L 9.90625 -35.953125 L 9.90625 0 Z M 2.515625 0 "/></g></g></g></svg>