<svg xmlns="http://www.w3.org/2000/svg" xmlns:xlink="http://www.w3.org/1999/xlink" width="500" zoomAndPan="magnify" viewBox="0 0 375 374.999991" height="500" preserveAspectRatio="xMidYMid meet" version="1.2"><defs><clipPath id="5889cb8c78"><path d="M 276 107.867188 L 344 107.867188 L 344 182 L 276 182 Z M 276 107.867188 "/></clipPath><clipPath id="de57aff015"><path d="M 0 369 L 12 369 L 12 374.867188 L 0 374.867188 Z M 0 369 "/></clipPath></defs><g id="e27e00f705"><g clip-rule="nonzero" clip-path="url(#5889cb8c78)"><path style=" stroke:none;fill-rule:nonzero;fill:#ffffff;fill-opacity:1;" d="M 322.664062 181.53125 L 309.457031 163.441406 L 321.789062 135.449219 L 297.113281 153.519531 L 276.605469 144.523438 L 343.949219 107.871094 L 322.664062 181.53125 "/></g><g clip-rule="nonzero" clip-path="url(#de57aff015)"><path style=" stroke:none;fill-rule:nonzero;fill:#ffffff;fill-opacity:1;" d="M 2.636719 374.867188 C 1.300781 374.867188 0.175781 373.824219 0.09375 372.472656 C 0.00390625 371.066406 1.074219 369.855469 2.480469 369.765625 C 4.640625 369.636719 6.816406 369.4375 8.945312 369.1875 C 10.355469 369.023438 11.613281 370.019531 11.78125 371.417969 C 11.945312 372.816406 10.949219 374.085938 9.546875 374.253906 C 7.324219 374.515625 5.050781 374.722656 2.796875 374.859375 C 2.742188 374.863281 2.6875 374.867188 2.636719 374.867188 "/></g><path style=" stroke:none;fill-rule:nonzero;fill:#ffffff;fill-opacity:1;" d="M 278.097656 195.605469 C 277.464844 195.605469 276.835938 195.375 276.339844 194.90625 C 275.320312 193.9375 275.277344 192.324219 276.246094 191.300781 C 279.203125 188.179688 282.039062 184.871094 284.675781 181.476562 C 285.535156 180.359375 287.140625 180.15625 288.253906 181.019531 C 289.367188 181.882812 289.570312 183.488281 288.707031 184.601562 C 285.96875 188.128906 283.023438 191.566406 279.949219 194.808594 C 279.449219 195.339844 278.773438 195.605469 278.097656 195.605469 Z M 258.160156 212.859375 C 257.359375 212.859375 256.570312 212.480469 256.070312 211.773438 C 255.261719 210.625 255.535156 209.03125 256.6875 208.21875 C 260.199219 205.75 263.628906 203.070312 266.886719 200.246094 C 267.949219 199.324219 269.5625 199.4375 270.488281 200.507812 C 271.40625 201.570312 271.292969 203.183594 270.226562 204.105469 C 266.839844 207.035156 263.273438 209.824219 259.625 212.390625 C 259.183594 212.707031 258.667969 212.859375 258.160156 212.859375 Z M 177.003906 226.25 C 175.960938 226.25 174.976562 225.601562 174.605469 224.558594 C 174.128906 223.234375 174.816406 221.773438 176.140625 221.296875 C 180.523438 219.71875 185.152344 218.878906 189.894531 218.800781 C 191.316406 218.773438 192.464844 219.898438 192.492188 221.304688 C 192.515625 222.714844 191.390625 223.878906 189.984375 223.902344 C 185.800781 223.972656 181.722656 224.710938 177.867188 226.097656 C 177.582031 226.199219 177.289062 226.25 177.003906 226.25 Z M 235.527344 226.441406 C 234.640625 226.441406 233.777344 225.976562 233.308594 225.152344 C 232.609375 223.929688 233.039062 222.371094 234.261719 221.671875 C 235.789062 220.800781 237.332031 219.9375 238.867188 219.074219 C 241.160156 217.785156 243.457031 216.496094 245.730469 215.171875 C 246.949219 214.464844 248.511719 214.878906 249.21875 216.097656 C 249.925781 217.316406 249.515625 218.878906 248.296875 219.585938 C 246 220.921875 243.679688 222.222656 241.367188 223.523438 C 239.835938 224.382812 238.308594 225.238281 236.789062 226.105469 C 236.390625 226.332031 235.957031 226.441406 235.527344 226.441406 Z M 214.574219 231.964844 C 214.042969 231.964844 213.511719 231.800781 213.054688 231.460938 C 210.316406 229.429688 207.378906 227.765625 204.324219 226.515625 C 203.609375 226.226562 202.878906 225.957031 202.140625 225.710938 C 200.800781 225.269531 200.074219 223.824219 200.515625 222.488281 C 200.957031 221.152344 202.398438 220.421875 203.742188 220.867188 C 204.589844 221.148438 205.433594 221.460938 206.25 221.792969 C 209.699219 223.203125 213.011719 225.078125 216.09375 227.363281 C 217.226562 228.203125 217.464844 229.800781 216.625 230.929688 C 216.125 231.605469 215.351562 231.964844 214.574219 231.964844 Z M 213.941406 241.535156 C 213.269531 241.535156 212.605469 241.277344 212.105469 240.757812 C 211.125 239.742188 211.152344 238.128906 212.167969 237.148438 C 212.875 236.464844 213.613281 235.789062 214.355469 235.144531 C 216.878906 232.941406 219.652344 230.824219 222.832031 228.671875 C 224 227.878906 225.589844 228.183594 226.378906 229.351562 C 227.167969 230.519531 226.863281 232.105469 225.699219 232.894531 C 222.6875 234.933594 220.074219 236.925781 217.707031 238.988281 C 217.03125 239.582031 216.359375 240.195312 215.710938 240.820312 C 215.21875 241.296875 214.574219 241.535156 213.941406 241.535156 Z M 157.824219 243.355469 C 157.460938 243.355469 157.089844 243.277344 156.738281 243.109375 C 155.464844 242.511719 154.917969 240.992188 155.515625 239.71875 C 156.257812 238.140625 157.109375 236.617188 158.046875 235.179688 C 159.683594 232.679688 161.675781 230.390625 163.976562 228.378906 C 165.035156 227.449219 166.648438 227.554688 167.578125 228.613281 C 168.507812 229.671875 168.398438 231.285156 167.34375 232.214844 C 165.390625 233.925781 163.699219 235.863281 162.316406 237.976562 C 161.507812 239.210938 160.777344 240.527344 160.136719 241.886719 C 159.699219 242.8125 158.78125 243.355469 157.824219 243.355469 Z M 230.730469 252.492188 C 229.757812 252.492188 228.832031 251.929688 228.402344 250.984375 C 226.660156 247.09375 224.484375 243.46875 221.945312 240.207031 C 221.078125 239.097656 221.28125 237.492188 222.390625 236.628906 C 223.503906 235.761719 225.109375 235.960938 225.972656 237.074219 C 228.761719 240.65625 231.144531 244.632812 233.058594 248.894531 C 233.632812 250.179688 233.0625 251.691406 231.773438 252.265625 C 231.4375 252.421875 231.085938 252.492188 230.730469 252.492188 Z M 200.460938 263.851562 C 200.261719 263.851562 200.0625 263.828125 199.859375 263.78125 C 198.488281 263.449219 197.648438 262.070312 197.976562 260.699219 C 199.023438 256.378906 200.871094 252.0625 203.46875 247.871094 C 204.210938 246.671875 205.785156 246.304688 206.980469 247.046875 C 208.179688 247.789062 208.550781 249.359375 207.804688 250.558594 C 205.492188 254.289062 203.859375 258.105469 202.9375 261.902344 C 202.65625 263.070312 201.613281 263.851562 200.460938 263.851562 Z M 153.382812 269.171875 C 153.378906 269.171875 153.375 269.171875 153.367188 269.171875 C 151.957031 269.160156 150.820312 268.011719 150.832031 266.601562 C 150.871094 261.085938 151.132812 256.917969 151.6875 253.082031 C 151.890625 251.691406 153.179688 250.722656 154.578125 250.925781 C 155.972656 251.125 156.941406 252.417969 156.738281 253.816406 C 156.21875 257.40625 155.972656 261.359375 155.9375 266.636719 C 155.921875 268.039062 154.785156 269.171875 153.382812 269.171875 Z M 67.679688 277.179688 C 66.792969 277.179688 65.933594 276.71875 65.460938 275.894531 C 64.765625 274.667969 65.191406 273.109375 66.414062 272.410156 C 67.917969 271.554688 69.492188 270.808594 71.085938 270.195312 C 73.925781 269.101562 76.90625 268.410156 79.945312 268.140625 C 81.34375 268.011719 82.589844 269.050781 82.710938 270.457031 C 82.835938 271.859375 81.800781 273.097656 80.398438 273.222656 C 77.832031 273.449219 75.316406 274.03125 72.921875 274.957031 C 71.5625 275.480469 70.222656 276.113281 68.941406 276.84375 C 68.542969 277.074219 68.109375 277.179688 67.679688 277.179688 Z M 234.929688 278.191406 C 234.785156 278.191406 234.644531 278.175781 234.5 278.152344 C 233.109375 277.917969 232.175781 276.597656 232.410156 275.210938 C 232.710938 273.46875 232.859375 271.628906 232.859375 269.746094 C 232.859375 267.570312 232.660156 265.402344 232.265625 263.296875 L 232.203125 262.984375 C 231.9375 261.601562 232.84375 260.265625 234.230469 259.996094 C 235.609375 259.734375 236.949219 260.636719 237.214844 262.019531 L 237.277344 262.347656 C 237.730469 264.773438 237.960938 267.257812 237.960938 269.746094 C 237.960938 271.914062 237.785156 274.039062 237.441406 276.066406 C 237.230469 277.308594 236.152344 278.191406 234.929688 278.191406 Z M 102.605469 284.027344 C 101.703125 284.027344 100.832031 283.550781 100.367188 282.707031 C 99.394531 280.941406 98.183594 279.390625 96.777344 278.097656 C 95.40625 276.839844 93.8125 275.796875 92.035156 274.996094 C 90.75 274.417969 90.175781 272.910156 90.753906 271.625 C 91.332031 270.339844 92.839844 269.765625 94.128906 270.34375 C 96.402344 271.367188 98.453125 272.710938 100.226562 274.339844 C 102.042969 276.003906 103.59375 277.992188 104.835938 280.242188 C 105.515625 281.476562 105.066406 283.027344 103.832031 283.710938 C 103.441406 283.925781 103.019531 284.027344 102.605469 284.027344 Z M 206.136719 288.472656 C 205.46875 288.472656 204.804688 288.210938 204.304688 287.691406 C 201.28125 284.570312 199.039062 280.652344 197.988281 276.660156 C 197.832031 276.070312 197.699219 275.480469 197.578125 274.890625 C 197.304688 273.511719 198.203125 272.167969 199.582031 271.890625 C 200.964844 271.613281 202.308594 272.511719 202.582031 273.894531 C 202.679688 274.382812 202.796875 274.875 202.921875 275.359375 C 203.753906 278.519531 205.546875 281.640625 207.972656 284.144531 C 208.953125 285.160156 208.925781 286.773438 207.914062 287.753906 C 207.417969 288.230469 206.777344 288.472656 206.136719 288.472656 Z M 219.152344 294.574219 C 218.550781 294.574219 217.941406 294.542969 217.328125 294.476562 C 215.925781 294.328125 214.914062 293.070312 215.0625 291.667969 C 215.210938 290.265625 216.464844 289.269531 217.867188 289.402344 C 219.589844 289.585938 221.234375 289.402344 222.800781 288.863281 C 224.65625 288.226562 226.296875 287.167969 227.679688 285.71875 C 228.652344 284.695312 230.265625 284.65625 231.285156 285.628906 C 232.304688 286.601562 232.34375 288.21875 231.375 289.238281 C 229.421875 291.285156 227.09375 292.785156 224.457031 293.691406 C 222.746094 294.277344 220.964844 294.574219 219.152344 294.574219 Z M 152.757812 295.554688 C 152.652344 295.554688 152.542969 295.546875 152.433594 295.535156 C 151.035156 295.355469 150.046875 294.078125 150.226562 292.679688 C 150.371094 291.511719 150.492188 290.320312 150.585938 289.15625 C 150.792969 286.484375 150.894531 283.515625 150.90625 279.816406 C 150.910156 278.410156 152.050781 277.273438 153.457031 277.273438 C 153.457031 277.273438 153.460938 277.273438 153.464844 277.273438 C 154.871094 277.277344 156.011719 278.421875 156.007812 279.828125 C 156 283.660156 155.890625 286.75 155.671875 289.550781 C 155.574219 290.800781 155.445312 292.070312 155.285156 293.324219 C 155.121094 294.613281 154.023438 295.554688 152.757812 295.554688 Z M 51.285156 297.195312 C 50.996094 297.195312 50.703125 297.144531 50.414062 297.039062 C 49.089844 296.558594 48.40625 295.097656 48.886719 293.773438 C 50.507812 289.304688 52.8125 285.203125 55.734375 281.582031 C 56.621094 280.484375 58.226562 280.3125 59.324219 281.195312 C 60.421875 282.082031 60.59375 283.6875 59.707031 284.785156 C 57.140625 287.96875 55.113281 291.578125 53.683594 295.511719 C 53.304688 296.550781 52.328125 297.195312 51.285156 297.195312 Z M 103.175781 309.589844 C 102.867188 309.589844 102.554688 309.535156 102.25 309.414062 C 100.9375 308.90625 100.289062 307.425781 100.800781 306.113281 C 101.753906 303.664062 102.433594 301.21875 102.820312 298.855469 C 103.0625 297.375 103.1875 295.863281 103.1875 294.363281 L 103.1875 294.183594 C 103.175781 292.777344 104.308594 291.625 105.71875 291.613281 C 107.160156 291.585938 108.277344 292.738281 108.289062 294.144531 L 108.289062 294.363281 C 108.289062 296.140625 108.144531 297.925781 107.855469 299.679688 C 107.410156 302.394531 106.636719 305.183594 105.554688 307.964844 C 105.160156 308.972656 104.195312 309.589844 103.175781 309.589844 Z M 144.917969 320.628906 C 144.515625 320.628906 144.109375 320.53125 143.730469 320.332031 C 142.480469 319.671875 142.003906 318.128906 142.660156 316.886719 C 144.613281 313.183594 146.25 309.230469 147.523438 305.132812 C 147.941406 303.789062 149.371094 303.039062 150.714844 303.453125 C 152.0625 303.871094 152.8125 305.300781 152.394531 306.648438 C 151.027344 311.042969 149.273438 315.289062 147.175781 319.265625 C 146.71875 320.132812 145.832031 320.628906 144.917969 320.628906 Z M 51.058594 323.070312 C 50.007812 323.070312 49.027344 322.417969 48.65625 321.371094 C 47.925781 319.316406 47.355469 317.199219 46.964844 315.089844 C 46.546875 312.808594 46.332031 310.457031 46.332031 308.089844 L 46.335938 307.53125 C 46.355469 306.132812 47.496094 305.015625 48.886719 305.015625 C 48.898438 305.015625 48.910156 305.015625 48.925781 305.015625 C 50.332031 305.035156 51.460938 306.195312 51.4375 307.605469 L 51.433594 308.089844 C 51.433594 310.144531 51.621094 312.1875 51.984375 314.164062 C 52.324219 316.011719 52.824219 317.863281 53.464844 319.664062 C 53.933594 320.992188 53.242188 322.453125 51.914062 322.921875 C 51.628906 323.023438 51.34375 323.070312 51.058594 323.070312 Z M 88.933594 331.691406 C 88.34375 331.691406 87.753906 331.488281 87.273438 331.078125 C 86.203125 330.160156 86.078125 328.546875 86.996094 327.480469 C 88.996094 325.144531 90.921875 322.710938 92.714844 320.242188 C 93.464844 319.207031 94.175781 318.191406 94.820312 317.226562 C 95.605469 316.058594 97.191406 315.742188 98.359375 316.527344 C 99.53125 317.3125 99.84375 318.898438 99.058594 320.070312 C 98.375 321.085938 97.632812 322.152344 96.84375 323.238281 C 94.96875 325.816406 92.960938 328.359375 90.871094 330.800781 C 90.367188 331.390625 89.652344 331.691406 88.933594 331.691406 Z M 128.230469 340.835938 C 127.46875 340.835938 126.714844 340.496094 126.214844 339.847656 C 125.347656 338.734375 125.554688 337.132812 126.664062 336.269531 C 127.867188 335.335938 129.035156 334.351562 130.132812 333.335938 C 132.089844 331.53125 133.953125 329.554688 135.675781 327.453125 C 136.570312 326.363281 138.175781 326.203125 139.265625 327.09375 C 140.355469 327.988281 140.515625 329.597656 139.621094 330.6875 C 137.75 332.96875 135.722656 335.125 133.59375 337.085938 C 132.386719 338.195312 131.109375 339.28125 129.792969 340.300781 C 129.328125 340.660156 128.777344 340.835938 128.230469 340.835938 Z M 66.800781 343.789062 C 66.277344 343.789062 65.75 343.628906 65.296875 343.296875 C 61.507812 340.519531 58.164062 337.257812 55.355469 333.601562 C 54.496094 332.484375 54.707031 330.882812 55.824219 330.027344 C 56.945312 329.167969 58.546875 329.378906 59.402344 330.496094 C 61.914062 333.769531 64.914062 336.6875 68.3125 339.179688 C 69.449219 340.011719 69.695312 341.609375 68.863281 342.746094 C 68.363281 343.425781 67.585938 343.789062 66.800781 343.789062 Z M 69.71875 349.730469 C 68.945312 349.730469 68.183594 349.382812 67.683594 348.71875 C 66.832031 347.59375 67.054688 345.992188 68.179688 345.144531 C 71.617188 342.542969 74.945312 339.742188 78.066406 336.816406 C 79.09375 335.847656 80.707031 335.902344 81.671875 336.929688 C 82.636719 337.957031 82.585938 339.574219 81.554688 340.535156 C 78.304688 343.585938 74.839844 346.507812 71.257812 349.214844 C 70.796875 349.5625 70.253906 349.730469 69.71875 349.730469 Z M 104.429688 351.734375 C 103.234375 351.734375 102.167969 350.894531 101.929688 349.679688 C 101.65625 348.296875 102.554688 346.953125 103.9375 346.679688 C 108.015625 345.875 112.039062 344.566406 115.898438 342.792969 C 117.175781 342.207031 118.691406 342.765625 119.28125 344.050781 C 119.867188 345.328125 119.304688 346.84375 118.027344 347.429688 C 113.804688 349.371094 109.398438 350.800781 104.925781 351.683594 C 104.761719 351.71875 104.59375 351.734375 104.429688 351.734375 Z M 91.296875 352.648438 C 91.246094 352.648438 91.191406 352.648438 91.136719 352.644531 C 88.5625 352.484375 86 352.128906 83.515625 351.585938 C 81.507812 351.148438 79.492188 350.5625 77.53125 349.847656 C 76.207031 349.367188 75.527344 347.902344 76.007812 346.578125 C 76.492188 345.253906 77.953125 344.570312 79.277344 345.054688 C 81.027344 345.691406 82.820312 346.210938 84.605469 346.601562 C 86.832031 347.089844 89.136719 347.410156 91.453125 347.550781 C 92.855469 347.636719 93.925781 348.847656 93.839844 350.253906 C 93.757812 351.605469 92.636719 352.648438 91.296875 352.648438 Z M 47.148438 363.355469 C 46.191406 363.355469 45.269531 362.8125 44.835938 361.882812 C 44.238281 360.609375 44.785156 359.089844 46.0625 358.492188 C 49.953125 356.664062 53.789062 354.613281 57.46875 352.394531 C 58.671875 351.667969 60.242188 352.050781 60.96875 353.257812 C 61.699219 354.46875 61.308594 356.035156 60.105469 356.761719 C 56.273438 359.074219 52.28125 361.210938 48.230469 363.113281 C 47.878906 363.273438 47.511719 363.355469 47.148438 363.355469 Z M 22.242188 372 C 21.082031 372 20.03125 371.199219 19.757812 370.019531 C 19.441406 368.648438 20.296875 367.277344 21.667969 366.957031 C 25.832031 365.996094 30.007812 364.789062 34.085938 363.371094 C 35.417969 362.90625 36.871094 363.613281 37.335938 364.945312 C 37.796875 366.273438 37.089844 367.726562 35.761719 368.191406 C 31.511719 369.667969 27.160156 370.925781 22.820312 371.929688 C 22.625 371.976562 22.433594 372 22.242188 372 "/><path style=" stroke:none;fill-rule:nonzero;fill:#ffffff;fill-opacity:1;" d="M 294.351562 174.601562 C 293.890625 174.601562 293.421875 174.476562 293.003906 174.214844 C 291.804688 173.46875 291.441406 171.894531 292.1875 170.699219 C 293.332031 168.871094 294.445312 166.984375 295.488281 165.097656 C 296.175781 163.863281 297.730469 163.421875 298.960938 164.105469 C 300.191406 164.789062 300.636719 166.34375 299.953125 167.574219 C 298.859375 169.539062 297.707031 171.496094 296.519531 173.402344 C 296.03125 174.175781 295.203125 174.601562 294.351562 174.601562 "/></g></svg>